<svg xmlns="http://www.w3.org/2000/svg" viewBox="0 0 600 360" width="600" height="360" role="img">
<rect width="600" height="360" fill="#e8e3d3"/>
<rect x="0" y="0" width="600" height="360" rx="0" fill="#e8e3d3"/><rect x="0" y="250" width="600" height="110" rx="0" fill="#d7d0b9"/><path d="M0,250 H600" fill="none" stroke="#2b2620" stroke-width="3" stroke-linecap="round" stroke-linejoin="round" /><rect x="120" y="236" width="360" height="16" rx="0" fill="#bdb69f"/><path d="M120,236 h360 v16 h-360 z" fill="none" stroke="#2b2620" stroke-width="3" stroke-linecap="round" stroke-linejoin="round" /><path d="M200,236 c0,-60 -34,-40 -22,-92 c8,-34 62,-30 70,4 c10,46 -16,32 -16,88 z" fill="#c96b4a" stroke="#2b2620" stroke-width="3.4" stroke-linejoin="round"/><path d="M186,180 c22,-14 44,4 62,-8" fill="none" stroke="#a3543a" stroke-width="3.4" stroke-linecap="round" stroke-linejoin="round" /><path d="M250,150 c34,-6 46,10 44,30" fill="none" stroke="#c96b4a" stroke-width="4" stroke-linecap="round" stroke-linejoin="round" /><g transform="translate(300 84) scale(0.78)"><path d="M160,196 c38,6 52,-20 40,-42 c-6,-11 -21,-12 -26,-1" fill="none" stroke="#37322c" stroke-width="16" stroke-linecap="round" stroke-linejoin="round" /><path d="M100,108 c-38,0 -60,42 -64,90 a10,10 0 0 0 10,12 h108 a10,10 0 0 0 10,-12 c-4,-48 -26,-90 -64,-90 z" fill="#4a443c" stroke="#2b2620" stroke-width="3.4" stroke-linejoin="round"/><path d="M100,124 c-16,0 -26,30 -26,54 q26,12 52,0 c0,-24 -10,-54 -26,-54 z" fill="#c9c3b4"/><ellipse cx="76" cy="208" rx="17" ry="11" fill="#c9c3b4" stroke="#2b2620" stroke-width="3.4"/><ellipse cx="124" cy="208" rx="17" ry="11" fill="#c9c3b4" stroke="#2b2620" stroke-width="3.4"/><path d="M138,160 c26,-6 40,-20 44,-36" fill="none" stroke="#4a443c" stroke-width="19" stroke-linecap="round" stroke-linejoin="round" /><ellipse cx="184" cy="120" rx="15" ry="13" fill="#c9c3b4" stroke="#2b2620" stroke-width="3.4"/><path d="M54,62 L44,14 L98,42 Z" fill="#4a443c" stroke="#2b2620" stroke-width="3.4" stroke-linejoin="round"/><path d="M146,62 L156,14 L102,42 Z" fill="#4a443c" stroke="#2b2620" stroke-width="3.4" stroke-linejoin="round"/><path d="M60,52 L55,26 L86,42 Z" fill="#e2a9a2"/><path d="M140,52 L145,26 L114,42 Z" fill="#e2a9a2"/><ellipse cx="100" cy="78" rx="54" ry="47" fill="#4a443c" stroke="#2b2620" stroke-width="3.4"/><path d="M90,34 q4,12 -1,20 M100,32 q0,12 0,18 M110,34 q-4,12 1,20" fill="none" stroke="#37322c" stroke-width="3.2" stroke-linecap="round" stroke-linejoin="round" /><ellipse cx="88" cy="96" rx="15" ry="11" fill="#c9c3b4"/><ellipse cx="112" cy="96" rx="15" ry="11" fill="#c9c3b4"/><path d="M92,89 h16 l-8,8 z" fill="#d9827e" stroke="#2b2620" stroke-width="2.6" stroke-linejoin="round"/><path d="M100,97 v5" fill="none" stroke="#2b2620" stroke-width="2.8" stroke-linecap="round" stroke-linejoin="round" /><path d="M100,102 q-8,8 -14,1" fill="none" stroke="#2b2620" stroke-width="2.8" stroke-linecap="round" stroke-linejoin="round" /><path d="M100,102 q8,8 14,1" fill="none" stroke="#2b2620" stroke-width="2.8" stroke-linecap="round" stroke-linejoin="round" /><path d="M64,86 l-22,-7 M64,94 l-24,4" fill="none" stroke="#2b2620" stroke-width="2.6" stroke-linecap="round" stroke-linejoin="round" /><path d="M136,86 l22,-7 M136,94 l24,4" fill="none" stroke="#2b2620" stroke-width="2.6" stroke-linecap="round" stroke-linejoin="round" /><ellipse cx="76" cy="76" rx="11" ry="12.5" fill="#fffdf6" stroke="#2b2620" stroke-width="3.4"/><ellipse cx="116" cy="76" rx="11" ry="12.5" fill="#fffdf6" stroke="#2b2620" stroke-width="3.4"/><ellipse cx="76" cy="76" rx="5.5" ry="7.5" fill="#2b2620"/><ellipse cx="116" cy="76" rx="5.5" ry="7.5" fill="#2b2620"/><ellipse cx="79" cy="72" rx="2.6" ry="3" fill="#fffdf6"/><ellipse cx="119" cy="72" rx="2.6" ry="3" fill="#fffdf6"/></g><text x="576" y="96" font-family="Caveat, 'Comic Sans MS', cursive" font-size="30" fill="#c2410c" text-anchor="end">not my fault</text>
<g opacity="0.07"><circle cx="130.4" cy="3.6" r="2.7" fill="#2b2620"/><circle cx="82.5" cy="21.2" r="1.9" fill="#2b2620"/><circle cx="83.2" cy="238.1" r="2.4" fill="#2b2620"/><circle cx="382.6" cy="84.1" r="1.2" fill="#2b2620"/><circle cx="30.6" cy="69.2" r="1.0" fill="#2b2620"/><circle cx="477.2" cy="343.6" r="2.5" fill="#2b2620"/><circle cx="172.4" cy="337.1" r="1.0" fill="#2b2620"/><circle cx="566.2" cy="199.8" r="2.8" fill="#2b2620"/><circle cx="108.6" cy="81.6" r="1.2" fill="#2b2620"/><circle cx="249.6" cy="132.6" r="2.6" fill="#2b2620"/><circle cx="39.2" cy="142.8" r="2.2" fill="#2b2620"/><circle cx="327.5" cy="262.1" r="2.6" fill="#2b2620"/><circle cx="164.3" cy="280.6" r="2.8" fill="#2b2620"/><circle cx="399.8" cy="348.3" r="1.6" fill="#2b2620"/><circle cx="83.9" cy="255.1" r="1.7" fill="#2b2620"/><circle cx="66.6" cy="151.1" r="2.0" fill="#2b2620"/><circle cx="597.9" cy="186.3" r="1.5" fill="#2b2620"/><circle cx="127.8" cy="150.6" r="2.6" fill="#2b2620"/><circle cx="106.3" cy="194.1" r="2.6" fill="#2b2620"/><circle cx="183.5" cy="106.8" r="2.2" fill="#2b2620"/><circle cx="9.2" cy="38.6" r="2.1" fill="#2b2620"/><circle cx="433.6" cy="139.6" r="1.3" fill="#2b2620"/><circle cx="506.5" cy="199.8" r="2.4" fill="#2b2620"/><circle cx="478.1" cy="9.2" r="2.4" fill="#2b2620"/><circle cx="598.3" cy="77.7" r="2.3" fill="#2b2620"/><circle cx="517.1" cy="195.3" r="2.6" fill="#2b2620"/><circle cx="484.5" cy="152.2" r="2.3" fill="#2b2620"/><circle cx="150.6" cy="98.2" r="2.3" fill="#2b2620"/><circle cx="365.2" cy="183.3" r="1.3" fill="#2b2620"/><circle cx="178.5" cy="197.7" r="2.1" fill="#2b2620"/><circle cx="440.3" cy="291.2" r="1.8" fill="#2b2620"/><circle cx="200.8" cy="253.9" r="2.8" fill="#2b2620"/><circle cx="309.9" cy="235.7" r="2.4" fill="#2b2620"/><circle cx="417.6" cy="26.7" r="1.2" fill="#2b2620"/><circle cx="173.9" cy="136.9" r="2.0" fill="#2b2620"/><circle cx="428.8" cy="356.2" r="1.7" fill="#2b2620"/><circle cx="232.3" cy="114.7" r="1.1" fill="#2b2620"/><circle cx="434.4" cy="282.4" r="1.1" fill="#2b2620"/><circle cx="85.2" cy="289.2" r="2.3" fill="#2b2620"/><circle cx="34.5" cy="285.2" r="1.9" fill="#2b2620"/><circle cx="532.5" cy="60.4" r="2.4" fill="#2b2620"/><circle cx="29.1" cy="124.7" r="1.0" fill="#2b2620"/></g>
</svg>
