<svg xmlns="http://www.w3.org/2000/svg" viewBox="0 0 600 450" width="600" height="450" role="img">
<rect width="600" height="450" fill="#e9e4d5"/>
<rect x="0" y="0" width="600" height="450" rx="0" fill="#e9e4d5"/><rect x="40" y="40" width="520" height="330" rx="8" fill="#fffdf6" stroke="#2b2620" stroke-width="3.4"/><rect x="40" y="40" width="520" height="30" rx="0" fill="#dcd5c2"/><circle cx="62" cy="55" r="6" fill="#c9c1ad"/><circle cx="82" cy="55" r="6" fill="#c9c1ad"/><path d="M40,70 H560" fill="none" stroke="#2b2620" stroke-width="3" stroke-linecap="round" stroke-linejoin="round" /><rect x="80" y="120" width="110" height="62" rx="6" fill="#fdf7e6" stroke="#2b2620" stroke-width="3.4"/><path d="M80,142 h110" fill="none" stroke="#c4bda9" stroke-width="2.4" stroke-linecap="round" stroke-linejoin="round" /><rect x="92" y="154" width="60" height="8" rx="0" fill="#cfc7b0"/><rect x="92" y="168" width="40" height="8" rx="0" fill="#cfc7b0"/><rect x="260" y="200" width="110" height="62" rx="6" fill="#fdf7e6" stroke="#2b2620" stroke-width="3.4"/><path d="M260,222 h110" fill="none" stroke="#c4bda9" stroke-width="2.4" stroke-linecap="round" stroke-linejoin="round" /><rect x="272" y="234" width="60" height="8" rx="0" fill="#cfc7b0"/><rect x="272" y="248" width="40" height="8" rx="0" fill="#cfc7b0"/><rect x="420" y="110" width="110" height="62" rx="6" fill="#fdf7e6" stroke="#2b2620" stroke-width="3.4"/><path d="M420,132 h110" fill="none" stroke="#c4bda9" stroke-width="2.4" stroke-linecap="round" stroke-linejoin="round" /><rect x="432" y="144" width="60" height="8" rx="0" fill="#cfc7b0"/><rect x="432" y="158" width="40" height="8" rx="0" fill="#cfc7b0"/><path d="M190,150 C230,150 230,232 260,232" fill="none" stroke="#1d4f8f" stroke-width="4" stroke-linecap="round" stroke-linejoin="round" /><path d="M370,222 C410,222 400,150 420,142" fill="none" stroke="#1d4f8f" stroke-width="4" stroke-linecap="round" stroke-linejoin="round" /><circle cx="190" cy="150" r="6" fill="#1d4f8f"/><circle cx="420" cy="142" r="6" fill="#1d4f8f"/><path d="M270,370 h60 l16,34 h-92 z" fill="#dcd5c2" stroke="#2b2620" stroke-width="3.4" stroke-linejoin="round"/><rect x="196" y="404" width="208" height="12" rx="0" fill="#cfc7b0"/><path d="M196,404 h208 v12 h-208 z" fill="none" stroke="#2b2620" stroke-width="3" stroke-linecap="round" stroke-linejoin="round" /><g transform="translate(378 238) scale(0.72)"><path d="M40,196 c-38,6 -52,-20 -40,-42 c6,-11 21,-12 26,-1" fill="none" stroke="#8b8880" stroke-width="16" stroke-linecap="round" stroke-linejoin="round" /><path d="M100,108 c-38,0 -60,42 -64,90 a10,10 0 0 0 10,12 h108 a10,10 0 0 0 10,-12 c-4,-48 -26,-90 -64,-90 z" fill="#a9a79c" stroke="#2b2620" stroke-width="3.4" stroke-linejoin="round"/><path d="M100,124 c-16,0 -26,30 -26,54 q26,12 52,0 c0,-24 -10,-54 -26,-54 z" fill="#efece2"/><ellipse cx="76" cy="208" rx="17" ry="11" fill="#efece2" stroke="#2b2620" stroke-width="3.4"/><ellipse cx="124" cy="208" rx="17" ry="11" fill="#efece2" stroke="#2b2620" stroke-width="3.4"/><path d="M138,160 c26,-6 40,-20 44,-36" fill="none" stroke="#a9a79c" stroke-width="19" stroke-linecap="round" stroke-linejoin="round" /><ellipse cx="184" cy="120" rx="15" ry="13" fill="#efece2" stroke="#2b2620" stroke-width="3.4"/><path d="M54,62 L44,14 L98,42 Z" fill="#a9a79c" stroke="#2b2620" stroke-width="3.4" stroke-linejoin="round"/><path d="M146,62 L156,14 L102,42 Z" fill="#a9a79c" stroke="#2b2620" stroke-width="3.4" stroke-linejoin="round"/><path d="M60,52 L55,26 L86,42 Z" fill="#e2a9a2"/><path d="M140,52 L145,26 L114,42 Z" fill="#e2a9a2"/><ellipse cx="100" cy="78" rx="54" ry="47" fill="#a9a79c" stroke="#2b2620" stroke-width="3.4"/><path d="M90,34 q4,12 -1,20 M100,32 q0,12 0,18 M110,34 q-4,12 1,20" fill="none" stroke="#8b8880" stroke-width="3.2" stroke-linecap="round" stroke-linejoin="round" /><ellipse cx="88" cy="96" rx="15" ry="11" fill="#efece2"/><ellipse cx="112" cy="96" rx="15" ry="11" fill="#efece2"/><path d="M92,89 h16 l-8,8 z" fill="#d9827e" stroke="#2b2620" stroke-width="2.6" stroke-linejoin="round"/><path d="M100,97 v5" fill="none" stroke="#2b2620" stroke-width="2.8" stroke-linecap="round" stroke-linejoin="round" /><path d="M100,102 q-8,8 -14,1" fill="none" stroke="#2b2620" stroke-width="2.8" stroke-linecap="round" stroke-linejoin="round" /><path d="M100,102 q8,8 14,1" fill="none" stroke="#2b2620" stroke-width="2.8" stroke-linecap="round" stroke-linejoin="round" /><path d="M64,86 l-22,-7 M64,94 l-24,4" fill="none" stroke="#2b2620" stroke-width="2.6" stroke-linecap="round" stroke-linejoin="round" /><path d="M136,86 l22,-7 M136,94 l24,4" fill="none" stroke="#2b2620" stroke-width="2.6" stroke-linecap="round" stroke-linejoin="round" /><ellipse cx="76" cy="76" rx="11" ry="12.5" fill="#fffdf6" stroke="#2b2620" stroke-width="3.4"/><ellipse cx="116" cy="76" rx="11" ry="12.5" fill="#fffdf6" stroke="#2b2620" stroke-width="3.4"/><ellipse cx="76" cy="76" rx="5.5" ry="7.5" fill="#2b2620"/><ellipse cx="116" cy="76" rx="5.5" ry="7.5" fill="#2b2620"/><ellipse cx="79" cy="72" rx="2.6" ry="3" fill="#fffdf6"/><ellipse cx="119" cy="72" rx="2.6" ry="3" fill="#fffdf6"/></g><text x="56" y="440" font-family="Caveat, 'Comic Sans MS', cursive" font-size="30" fill="#5c5346" >pair programming</text>
<g opacity="0.07"><circle cx="93.3" cy="412.7" r="2.4" fill="#2b2620"/><circle cx="256.5" cy="243.1" r="2.5" fill="#2b2620"/><circle cx="268.4" cy="172.5" r="1.3" fill="#2b2620"/><circle cx="378.8" cy="388.4" r="1.6" fill="#2b2620"/><circle cx="237.9" cy="178.2" r="2.2" fill="#2b2620"/><circle cx="95.6" cy="179.4" r="2.2" fill="#2b2620"/><circle cx="201.9" cy="129.6" r="2.1" fill="#2b2620"/><circle cx="206.8" cy="216.3" r="1.1" fill="#2b2620"/><circle cx="360.4" cy="176.9" r="1.6" fill="#2b2620"/><circle cx="312.5" cy="199.0" r="2.6" fill="#2b2620"/><circle cx="313.2" cy="20.1" r="1.3" fill="#2b2620"/><circle cx="12.6" cy="277.6" r="1.9" fill="#2b2620"/><circle cx="260.6" cy="259.0" r="1.7" fill="#2b2620"/><circle cx="107.2" cy="152.0" r="1.4" fill="#2b2620"/><circle cx="402.4" cy="143.8" r="1.7" fill="#2b2620"/><circle cx="196.2" cy="422.2" r="1.6" fill="#2b2620"/><circle cx="338.6" cy="274.5" r="1.9" fill="#2b2620"/><circle cx="479.6" cy="338.2" r="1.5" fill="#2b2620"/><circle cx="269.2" cy="351.0" r="1.1" fill="#2b2620"/><circle cx="557.5" cy="50.1" r="1.5" fill="#2b2620"/><circle cx="394.3" cy="73.3" r="1.7" fill="#2b2620"/><circle cx="29.8" cy="157.8" r="2.3" fill="#2b2620"/><circle cx="313.9" cy="41.4" r="2.4" fill="#2b2620"/><circle cx="296.6" cy="361.4" r="2.7" fill="#2b2620"/><circle cx="227.9" cy="405.4" r="2.2" fill="#2b2620"/><circle cx="357.8" cy="360.8" r="1.5" fill="#2b2620"/><circle cx="336.3" cy="415.2" r="1.5" fill="#2b2620"/><circle cx="413.5" cy="306.0" r="1.1" fill="#2b2620"/><circle cx="239.2" cy="220.8" r="2.8" fill="#2b2620"/><circle cx="63.6" cy="347.1" r="2.0" fill="#2b2620"/><circle cx="136.5" cy="422.3" r="1.3" fill="#2b2620"/><circle cx="108.1" cy="183.9" r="1.3" fill="#2b2620"/><circle cx="228.3" cy="269.6" r="1.1" fill="#2b2620"/><circle cx="147.1" cy="416.7" r="1.4" fill="#2b2620"/><circle cx="114.5" cy="362.7" r="1.2" fill="#2b2620"/><circle cx="380.6" cy="295.2" r="1.1" fill="#2b2620"/><circle cx="595.2" cy="401.7" r="2.0" fill="#2b2620"/><circle cx="408.5" cy="419.6" r="1.0" fill="#2b2620"/><circle cx="70.3" cy="86.5" r="2.5" fill="#2b2620"/><circle cx="430.8" cy="39.8" r="1.7" fill="#2b2620"/><circle cx="539.9" cy="17.1" r="1.3" fill="#2b2620"/><circle cx="47.6" cy="205.9" r="1.9" fill="#2b2620"/><circle cx="403.9" cy="343.6" r="2.6" fill="#2b2620"/><circle cx="58.8" cy="167.8" r="2.4" fill="#2b2620"/><circle cx="462.3" cy="315.9" r="1.8" fill="#2b2620"/><circle cx="64.4" cy="75.5" r="1.8" fill="#2b2620"/><circle cx="315.2" cy="84.0" r="1.2" fill="#2b2620"/><circle cx="264.5" cy="79.0" r="2.6" fill="#2b2620"/><circle cx="162.5" cy="248.0" r="1.3" fill="#2b2620"/><circle cx="259.1" cy="328.4" r="1.7" fill="#2b2620"/><circle cx="204.3" cy="57.8" r="1.0" fill="#2b2620"/><circle cx="248.1" cy="73.6" r="1.7" fill="#2b2620"/></g>
</svg>
