<svg xmlns="http://www.w3.org/2000/svg" viewBox="0 0 600 450" width="600" height="450" role="img">
<rect width="600" height="450" fill="#e4e0d2"/>
<rect x="0" y="0" width="600" height="450" rx="0" fill="#e4e0d2"/><rect x="0" y="356" width="600" height="94" rx="0" fill="#d5cdb6"/><path d="M0,356 H600" fill="none" stroke="#2b2620" stroke-width="3" stroke-linecap="round" stroke-linejoin="round" /><path d="M180,140 h240 q14,0 14,14 v190 q0,14 -14,14 h-240 q-14,0 -14,-14 v-190 q0,-14 14,-14 z" fill="#ded8c6" stroke="#2b2620" stroke-width="3.4" stroke-linejoin="round"/><rect x="200" y="166" width="200" height="148" rx="6" fill="#cfd6d2" stroke="#2b2620" stroke-width="3.4"/><rect x="212" y="178" width="176" height="124" rx="0" fill="#b9c6c2"/><text x="226" y="214" font-family="'Space Mono', ui-monospace, monospace" font-size="20" fill="#3d4a46" >hello,</text><text x="226" y="244" font-family="'Space Mono', ui-monospace, monospace" font-size="20" fill="#3d4a46" >again</text><rect x="292" y="328" width="100" height="12" rx="0" fill="#c6bfa9"/><path d="M292,328 h100 v12 h-100 z" fill="none" stroke="#2b2620" stroke-width="2.6" stroke-linecap="round" stroke-linejoin="round" /><path d="M292,328 h100" fill="none" stroke="#2b2620" stroke-width="2.6" stroke-linecap="round" stroke-linejoin="round" /><g transform="translate(178 34) scale(0.62)"><path d="M172,168 c30,4 40,-8 36,-24" fill="none" stroke="#2b2620" stroke-width="15" stroke-linecap="round" stroke-linejoin="round" /><path d="M28,188 c-6,-52 24,-84 72,-84 s78,32 72,84 z" fill="#3a352e" stroke="#2b2620" stroke-width="3.4" stroke-linejoin="round"/><path d="M58,188 c-2,-30 16,-46 42,-46 s44,16 42,46 z" fill="#fffdf6"/><path d="M46,150 q10,6 12,16 M150,150 q-10,6 -12,16" fill="none" stroke="#2b2620" stroke-width="3.2" stroke-linecap="round" stroke-linejoin="round" /><g transform="translate(0 24) scale(1)"><path d="M54,62 L44,14 L98,42 Z" fill="#3a352e" stroke="#2b2620" stroke-width="3.4" stroke-linejoin="round"/><path d="M146,62 L156,14 L102,42 Z" fill="#3a352e" stroke="#2b2620" stroke-width="3.4" stroke-linejoin="round"/><path d="M60,52 L55,26 L86,42 Z" fill="#e2a9a2"/><path d="M140,52 L145,26 L114,42 Z" fill="#e2a9a2"/><ellipse cx="100" cy="78" rx="54" ry="47" fill="#3a352e" stroke="#2b2620" stroke-width="3.4"/><path d="M90,34 q4,12 -1,20 M100,32 q0,12 0,18 M110,34 q-4,12 1,20" fill="none" stroke="#2b2620" stroke-width="3.2" stroke-linecap="round" stroke-linejoin="round" /><ellipse cx="88" cy="96" rx="15" ry="11" fill="#fffdf6"/><ellipse cx="112" cy="96" rx="15" ry="11" fill="#fffdf6"/><path d="M92,89 h16 l-8,8 z" fill="#d9827e" stroke="#2b2620" stroke-width="2.6" stroke-linejoin="round"/><path d="M100,97 v5" fill="none" stroke="#2b2620" stroke-width="2.8" stroke-linecap="round" stroke-linejoin="round" /><path d="M100,102 q-8,8 -14,1" fill="none" stroke="#2b2620" stroke-width="2.8" stroke-linecap="round" stroke-linejoin="round" /><path d="M100,102 q8,8 14,1" fill="none" stroke="#2b2620" stroke-width="2.8" stroke-linecap="round" stroke-linejoin="round" /><path d="M64,86 l-22,-7 M64,94 l-24,4" fill="none" stroke="#2b2620" stroke-width="2.6" stroke-linecap="round" stroke-linejoin="round" /><path d="M136,86 l22,-7 M136,94 l24,4" fill="none" stroke="#2b2620" stroke-width="2.6" stroke-linecap="round" stroke-linejoin="round" /><path d="M68,79 q8,-11 16,0" fill="none" stroke="#2b2620" stroke-width="4" stroke-linecap="round" stroke-linejoin="round" /><ellipse cx="116" cy="76" rx="8.5" ry="10.5" fill="#2b2620"/><ellipse cx="119" cy="72" rx="3" ry="3.4" fill="#fffdf6"/></g></g><text x="430" y="130" font-family="Caveat, 'Comic Sans MS', cursive" font-size="30" fill="#5c5346" >warm spot</text><path d="M436,142 c-20,14 -34,20 -48,22" fill="none" stroke="#5c5346" stroke-width="2.6" stroke-linecap="round" stroke-linejoin="round" />
<g opacity="0.07"><circle cx="308.7" cy="392.6" r="2.7" fill="#2b2620"/><circle cx="534.0" cy="77.9" r="1.2" fill="#2b2620"/><circle cx="41.2" cy="187.1" r="1.0" fill="#2b2620"/><circle cx="280.4" cy="7.8" r="1.2" fill="#2b2620"/><circle cx="301.5" cy="177.5" r="2.3" fill="#2b2620"/><circle cx="354.6" cy="433.6" r="1.7" fill="#2b2620"/><circle cx="89.6" cy="63.7" r="1.8" fill="#2b2620"/><circle cx="356.6" cy="155.2" r="1.6" fill="#2b2620"/><circle cx="205.4" cy="445.7" r="1.9" fill="#2b2620"/><circle cx="486.3" cy="222.7" r="1.6" fill="#2b2620"/><circle cx="249.1" cy="123.6" r="1.4" fill="#2b2620"/><circle cx="343.8" cy="335.9" r="2.1" fill="#2b2620"/><circle cx="420.5" cy="147.3" r="2.6" fill="#2b2620"/><circle cx="129.1" cy="195.0" r="1.9" fill="#2b2620"/><circle cx="319.7" cy="216.8" r="2.6" fill="#2b2620"/><circle cx="42.2" cy="400.0" r="1.8" fill="#2b2620"/><circle cx="146.6" cy="32.1" r="2.0" fill="#2b2620"/><circle cx="283.0" cy="200.8" r="2.3" fill="#2b2620"/><circle cx="101.4" cy="193.3" r="1.4" fill="#2b2620"/><circle cx="451.6" cy="197.4" r="2.1" fill="#2b2620"/><circle cx="383.9" cy="400.4" r="1.4" fill="#2b2620"/><circle cx="148.0" cy="89.8" r="1.9" fill="#2b2620"/><circle cx="594.2" cy="353.2" r="2.6" fill="#2b2620"/><circle cx="172.2" cy="28.1" r="2.3" fill="#2b2620"/><circle cx="332.2" cy="201.9" r="1.9" fill="#2b2620"/><circle cx="124.2" cy="162.2" r="2.1" fill="#2b2620"/><circle cx="398.1" cy="96.4" r="1.8" fill="#2b2620"/><circle cx="203.9" cy="192.1" r="1.9" fill="#2b2620"/><circle cx="391.7" cy="186.8" r="1.1" fill="#2b2620"/><circle cx="11.4" cy="267.9" r="2.2" fill="#2b2620"/><circle cx="513.1" cy="173.0" r="2.2" fill="#2b2620"/><circle cx="346.7" cy="89.5" r="1.9" fill="#2b2620"/><circle cx="362.3" cy="205.0" r="2.1" fill="#2b2620"/><circle cx="209.8" cy="257.0" r="1.7" fill="#2b2620"/><circle cx="139.3" cy="432.9" r="1.4" fill="#2b2620"/><circle cx="400.7" cy="20.2" r="2.0" fill="#2b2620"/><circle cx="44.0" cy="106.6" r="2.4" fill="#2b2620"/><circle cx="519.3" cy="429.3" r="1.6" fill="#2b2620"/><circle cx="276.5" cy="276.1" r="2.2" fill="#2b2620"/><circle cx="165.7" cy="284.3" r="1.3" fill="#2b2620"/><circle cx="436.8" cy="191.4" r="1.4" fill="#2b2620"/><circle cx="139.9" cy="185.1" r="1.6" fill="#2b2620"/><circle cx="124.9" cy="2.6" r="2.4" fill="#2b2620"/><circle cx="41.8" cy="281.7" r="1.2" fill="#2b2620"/><circle cx="140.7" cy="309.7" r="2.2" fill="#2b2620"/><circle cx="71.6" cy="274.1" r="2.6" fill="#2b2620"/><circle cx="84.4" cy="362.5" r="1.4" fill="#2b2620"/><circle cx="429.1" cy="312.4" r="1.0" fill="#2b2620"/><circle cx="155.8" cy="311.2" r="2.3" fill="#2b2620"/><circle cx="114.4" cy="96.5" r="2.4" fill="#2b2620"/><circle cx="554.9" cy="305.7" r="2.0" fill="#2b2620"/><circle cx="527.4" cy="226.4" r="2.0" fill="#2b2620"/></g>
</svg>
