<svg xmlns="http://www.w3.org/2000/svg" viewBox="0 0 240 160" width="240" height="160" role="img">
<rect width="240" height="160" fill="#e4e8dd"/>
<rect x="0" y="122" width="240" height="38" rx="0" fill="#cdd4c6"/><path d="M0,122 H240" fill="none" stroke="#2b2620" stroke-width="2.6" stroke-linecap="round" stroke-linejoin="round" /><g transform="translate(28 42) scale(0.68)"><path d="M42,74 c-26,-4 -36,-24 -30,-44" fill="none" stroke="#2b2620" stroke-width="14" stroke-linecap="round" stroke-linejoin="round" /><path d="M44,72 c0,-24 26,-34 62,-34 s58,10 60,32 c2,20 -8,34 -30,34 h-64 c-22,0 -28,-14 -28,-32 z" fill="#3a352e" stroke="#2b2620" stroke-width="3.4" stroke-linejoin="round"/><path d="M64,96 c26,8 60,8 82,0 c-4,8 -14,12 -24,12 h-36 c-10,0 -18,-4 -22,-12 z" fill="#fffdf6"/><path d="M64,102 v40 M92,102 v40 M136,102 v40 M160,102 v40" fill="none" stroke="#3a352e" stroke-width="12" stroke-linecap="round" stroke-linejoin="round" /><ellipse cx="64" cy="144" rx="10" ry="7" fill="#fffdf6" stroke="#2b2620" stroke-width="3.4"/><ellipse cx="92" cy="144" rx="10" ry="7" fill="#fffdf6" stroke="#2b2620" stroke-width="3.4"/><ellipse cx="136" cy="144" rx="10" ry="7" fill="#fffdf6" stroke="#2b2620" stroke-width="3.4"/><ellipse cx="160" cy="144" rx="10" ry="7" fill="#fffdf6" stroke="#2b2620" stroke-width="3.4"/><ellipse cx="184" cy="62" rx="34" ry="31" fill="#3a352e" stroke="#2b2620" stroke-width="3.4"/><path d="M162,44 L158,16 L188,32 Z" fill="#3a352e" stroke="#2b2620" stroke-width="3.4" stroke-linejoin="round"/><path d="M206,44 L212,16 L186,30 Z" fill="#3a352e" stroke="#2b2620" stroke-width="3.4" stroke-linejoin="round"/><path d="M172,58 q6,-8 12,0" fill="none" stroke="#2b2620" stroke-width="3.2" stroke-linecap="round" stroke-linejoin="round" /><ellipse cx="206" cy="58" rx="5" ry="6.5" fill="#2b2620"/><path d="M200,70 h10 l-5,6 z" fill="#d9827e" stroke="#2b2620" stroke-width="2.2" stroke-linejoin="round"/><path d="M198,76 l-18,-6 M198,82 l-18,3" fill="none" stroke="#2b2620" stroke-width="2.4" stroke-linecap="round" stroke-linejoin="round" /><path d="M96,56 q3,10 -1,18 M120,54 q3,11 -1,19" fill="none" stroke="#2b2620" stroke-width="3" stroke-linecap="round" stroke-linejoin="round" /></g>
<g opacity="0.07"><circle cx="81.8" cy="31.2" r="1.5" fill="#2b2620"/><circle cx="133.8" cy="15.4" r="2.6" fill="#2b2620"/><circle cx="125.2" cy="34.7" r="2.6" fill="#2b2620"/><circle cx="156.1" cy="155.9" r="2.2" fill="#2b2620"/><circle cx="86.4" cy="125.6" r="2.1" fill="#2b2620"/><circle cx="16.1" cy="10.5" r="1.3" fill="#2b2620"/><circle cx="45.3" cy="37.3" r="2.4" fill="#2b2620"/></g>
</svg>
