<svg xmlns="http://www.w3.org/2000/svg" viewBox="0 0 600 400" width="600" height="400" role="img">
<rect width="600" height="400" fill="#2f3a44"/>
<rect x="0" y="0" width="600" height="400" rx="0" fill="#2f3a44"/><circle cx="150" cy="150" r="120" fill="#4a5560" opacity="0.9"/><circle cx="150" cy="150" r="70" fill="#5e6874" opacity="0.9"/><rect x="20" y="120" width="90" height="200" rx="0" fill="#26303a"/><rect x="120" y="80" width="70" height="240" rx="0" fill="#26303a"/><rect x="210" y="140" width="110" height="180" rx="0" fill="#26303a"/><rect x="340" y="60" width="80" height="260" rx="0" fill="#26303a"/><rect x="440" y="130" width="130" height="190" rx="0" fill="#26303a"/><rect x="36" y="140" width="16" height="22" rx="0" fill="#ffe066"/><rect x="60" y="140" width="16" height="22" rx="0" fill="#ffe066"/><rect x="136" y="100" width="16" height="22" rx="0" fill="#ffe066"/><rect x="160" y="100" width="16" height="22" rx="0" fill="#ffe066"/><rect x="356" y="90" width="16" height="22" rx="0" fill="#ffe066"/><rect x="380" y="90" width="16" height="22" rx="0" fill="#ffe066"/><rect x="462" y="156" width="16" height="22" rx="0" fill="#ffe066"/><rect x="500" y="156" width="16" height="22" rx="0" fill="#ffe066"/><rect x="236" y="170" width="16" height="22" rx="0" fill="#ffe066"/><rect x="0" y="320" width="600" height="80" rx="0" fill="#1f272f"/><path d="M0,320 H600" fill="none" stroke="#141a20" stroke-width="3" stroke-linecap="round" stroke-linejoin="round" /><path d="M150,320 V170" fill="none" stroke="#141a20" stroke-width="6" stroke-linecap="round" stroke-linejoin="round" /><circle cx="150" cy="158" r="18" fill="#ffe066" stroke="#141a20" stroke-width="3"/><path d="M96,320 L150,196 L204,320 Z" fill="#f6e8a8"/><g transform="translate(186 212) scale(0.78)"><path d="M42,74 c-26,-4 -36,-24 -30,-44" fill="none" stroke="#2b2620" stroke-width="14" stroke-linecap="round" stroke-linejoin="round" /><path d="M44,72 c0,-24 26,-34 62,-34 s58,10 60,32 c2,20 -8,34 -30,34 h-64 c-22,0 -28,-14 -28,-32 z" fill="#3a352e" stroke="#2b2620" stroke-width="3.4" stroke-linejoin="round"/><path d="M64,96 c26,8 60,8 82,0 c-4,8 -14,12 -24,12 h-36 c-10,0 -18,-4 -22,-12 z" fill="#fffdf6"/><path d="M64,102 v40 M92,102 v40 M136,102 v40 M160,102 v40" fill="none" stroke="#3a352e" stroke-width="12" stroke-linecap="round" stroke-linejoin="round" /><ellipse cx="64" cy="144" rx="10" ry="7" fill="#fffdf6" stroke="#2b2620" stroke-width="3.4"/><ellipse cx="92" cy="144" rx="10" ry="7" fill="#fffdf6" stroke="#2b2620" stroke-width="3.4"/><ellipse cx="136" cy="144" rx="10" ry="7" fill="#fffdf6" stroke="#2b2620" stroke-width="3.4"/><ellipse cx="160" cy="144" rx="10" ry="7" fill="#fffdf6" stroke="#2b2620" stroke-width="3.4"/><ellipse cx="184" cy="62" rx="34" ry="31" fill="#3a352e" stroke="#2b2620" stroke-width="3.4"/><path d="M162,44 L158,16 L188,32 Z" fill="#3a352e" stroke="#2b2620" stroke-width="3.4" stroke-linejoin="round"/><path d="M206,44 L212,16 L186,30 Z" fill="#3a352e" stroke="#2b2620" stroke-width="3.4" stroke-linejoin="round"/><path d="M172,58 q6,-8 12,0" fill="none" stroke="#2b2620" stroke-width="3.2" stroke-linecap="round" stroke-linejoin="round" /><ellipse cx="206" cy="58" rx="5" ry="6.5" fill="#2b2620"/><path d="M200,70 h10 l-5,6 z" fill="#d9827e" stroke="#2b2620" stroke-width="2.2" stroke-linejoin="round"/><path d="M198,76 l-18,-6 M198,82 l-18,3" fill="none" stroke="#2b2620" stroke-width="2.4" stroke-linecap="round" stroke-linejoin="round" /><path d="M96,56 q3,10 -1,18 M120,54 q3,11 -1,19" fill="none" stroke="#2b2620" stroke-width="3" stroke-linecap="round" stroke-linejoin="round" /></g><text x="576" y="300" font-family="Caveat, 'Comic Sans MS', cursive" font-size="30" fill="#cbd3da" text-anchor="end">pushed two stops</text>
<g opacity="0.07"><circle cx="290.2" cy="130.4" r="1.7" fill="#2b2620"/><circle cx="321.0" cy="165.5" r="2.4" fill="#2b2620"/><circle cx="433.8" cy="310.8" r="1.4" fill="#2b2620"/><circle cx="278.5" cy="332.9" r="1.4" fill="#2b2620"/><circle cx="105.2" cy="398.5" r="1.2" fill="#2b2620"/><circle cx="163.8" cy="274.3" r="1.5" fill="#2b2620"/><circle cx="104.4" cy="127.0" r="1.5" fill="#2b2620"/><circle cx="176.9" cy="123.1" r="1.7" fill="#2b2620"/><circle cx="31.3" cy="29.5" r="1.2" fill="#2b2620"/><circle cx="517.7" cy="12.7" r="2.5" fill="#2b2620"/><circle cx="86.1" cy="239.4" r="2.7" fill="#2b2620"/><circle cx="186.4" cy="76.4" r="2.6" fill="#2b2620"/><circle cx="468.6" cy="90.1" r="1.2" fill="#2b2620"/><circle cx="582.8" cy="47.4" r="2.7" fill="#2b2620"/><circle cx="178.9" cy="114.9" r="2.6" fill="#2b2620"/><circle cx="107.0" cy="59.2" r="1.6" fill="#2b2620"/><circle cx="17.0" cy="47.1" r="2.3" fill="#2b2620"/><circle cx="158.9" cy="245.1" r="1.7" fill="#2b2620"/><circle cx="182.8" cy="20.0" r="2.5" fill="#2b2620"/><circle cx="338.6" cy="338.4" r="1.8" fill="#2b2620"/><circle cx="276.4" cy="167.0" r="2.1" fill="#2b2620"/><circle cx="246.2" cy="72.4" r="2.4" fill="#2b2620"/><circle cx="497.8" cy="221.4" r="1.7" fill="#2b2620"/><circle cx="81.5" cy="380.5" r="2.4" fill="#2b2620"/><circle cx="447.0" cy="316.5" r="1.9" fill="#2b2620"/><circle cx="44.5" cy="196.0" r="2.5" fill="#2b2620"/><circle cx="324.0" cy="185.7" r="1.4" fill="#2b2620"/><circle cx="335.4" cy="52.2" r="1.3" fill="#2b2620"/><circle cx="328.7" cy="362.3" r="2.8" fill="#2b2620"/><circle cx="554.0" cy="82.6" r="1.2" fill="#2b2620"/><circle cx="61.2" cy="179.7" r="1.1" fill="#2b2620"/><circle cx="300.4" cy="20.3" r="1.2" fill="#2b2620"/><circle cx="321.5" cy="171.1" r="2.4" fill="#2b2620"/><circle cx="374.6" cy="398.8" r="1.8" fill="#2b2620"/><circle cx="109.6" cy="69.9" r="1.9" fill="#2b2620"/><circle cx="376.6" cy="151.3" r="1.7" fill="#2b2620"/><circle cx="225.4" cy="9.5" r="2.0" fill="#2b2620"/><circle cx="506.3" cy="211.3" r="1.6" fill="#2b2620"/><circle cx="269.1" cy="123.2" r="1.4" fill="#2b2620"/><circle cx="363.8" cy="311.9" r="2.1" fill="#2b2620"/><circle cx="440.5" cy="144.2" r="2.7" fill="#2b2620"/><circle cx="149.1" cy="186.7" r="2.0" fill="#2b2620"/><circle cx="339.7" cy="206.0" r="2.7" fill="#2b2620"/><circle cx="62.2" cy="368.9" r="1.9" fill="#2b2620"/><circle cx="166.6" cy="41.9" r="2.1" fill="#2b2620"/><circle cx="303.0" cy="191.8" r="2.3" fill="#2b2620"/></g>
</svg>
